<svg width="91" height="91" viewBox="0 0 91 91" fill="none" xmlns="http://www.w3.org/2000/svg">
<path d="M84.6924 30.6341L76.9079 33.7903L76.421 32.5893L84.2055 29.4331L84.6924 30.6341ZM81.162 31.4439L80.0055 31.9129L78.3778 27.8983L79.5343 27.4294L81.162 31.4439ZM77.8481 32.7876L76.6915 33.2565L74.8609 28.7415L76.0174 28.2726L77.8481 32.7876Z" fill="#98A2B3"/>
<path d="M78.3171 18.9835C78.6705 19.4584 78.9111 19.9625 79.0388 20.4958C79.1616 21.0226 79.1813 21.5515 79.0978 22.0824C79.003 22.6116 78.8092 23.1149 78.5162 23.5923C78.2121 24.068 77.8097 24.4921 77.3092 24.8647C76.8086 25.2372 76.2901 25.4985 75.7535 25.6486C75.2058 25.797 74.668 25.8382 74.1402 25.7723C73.6013 25.7047 73.0971 25.5365 72.6277 25.2676C72.1535 24.9922 71.7396 24.6171 71.3862 24.1422C71.0327 23.6673 70.7945 23.1664 70.6717 22.6396C70.544 22.1063 70.5276 21.5751 70.6223 21.0458C70.7123 20.5101 70.9093 20.0044 71.2134 19.5287C71.5064 19.0514 71.8999 18.6289 72.3941 18.2611C72.8882 17.8933 73.4092 17.6352 73.9569 17.4868C74.4935 17.3367 75.0312 17.2955 75.5702 17.3631C76.1044 17.4242 76.6086 17.5925 77.0828 17.8678C77.5522 18.1367 77.9636 18.5086 78.3171 18.9835ZM77.3063 19.7358C77.0627 19.4085 76.7796 19.1555 76.4571 18.9767C76.1298 18.7915 75.783 18.6806 75.4167 18.6441C75.044 18.6123 74.6695 18.6518 74.2931 18.7624C73.9055 18.8714 73.5352 19.0572 73.1822 19.3199C72.8293 19.5827 72.5482 19.8816 72.3389 20.2169C72.1185 20.5505 71.9732 20.8979 71.9031 21.2593C71.8266 21.6254 71.83 21.9918 71.9135 22.3585C71.9922 22.7188 72.1533 23.0626 72.3969 23.3899C72.6405 23.7172 72.926 23.9734 73.2533 24.1586C73.5759 24.3374 73.9227 24.4483 74.2937 24.4912C74.66 24.5278 75.0345 24.4883 75.4174 24.3729C75.7938 24.2623 76.1617 24.0733 76.521 23.8058C76.874 23.5431 77.1607 23.2449 77.3811 22.9113C77.6015 22.5777 77.7468 22.2302 77.8169 21.8689C77.8823 21.5011 77.8756 21.1371 77.7969 20.7768C77.7135 20.4101 77.5499 20.0631 77.3063 19.7358Z" fill="#98A2B3"/>
<path d="M71.6473 12.3464L66.6812 19.1212L63.7971 17.0071C63.4099 16.7233 63.126 16.3664 62.9453 15.9364C62.7534 15.508 62.6813 15.0584 62.7289 14.5875C62.7718 14.123 62.9423 13.6875 63.2402 13.281C63.5098 12.9132 63.8573 12.6422 64.2826 12.4679C64.7079 12.2936 65.1528 12.228 65.6173 12.2709C66.0771 12.3202 66.5037 12.4892 66.8973 12.7777L68.7362 14.1256L70.602 11.5802L71.6473 12.3464ZM67.6211 9.39515L67.102 13.7163L65.8504 13.1708L66.3603 8.4561L67.6211 9.39515ZM67.9984 15.1322L66.0627 13.7133C65.8756 13.5761 65.6747 13.4983 65.4601 13.4799C65.2408 13.4679 65.0301 13.5118 64.8279 13.6116C64.6211 13.7179 64.4444 13.871 64.2977 14.071C64.1322 14.2969 64.0428 14.5339 64.0295 14.782C64.005 15.0319 64.0541 15.2762 64.1768 15.5149C64.2929 15.7488 64.4704 15.9533 64.7091 16.1283L66.3738 17.3485L67.9984 15.1322Z" fill="#98A2B3"/>
<path d="M54.8759 4.15929L53.2158 11.116L55.5036 11.6619L55.2139 12.8758L49.3078 11.4665L49.5974 10.2525L51.9552 10.8152L53.6153 3.85848L54.8759 4.15929Z" fill="#98A2B3"/>
<path d="M47.2012 3.05928L47.1873 4.2592L45.8314 4.2435L45.7619 10.2431L47.1178 10.2588L47.1039 11.4587L43.0962 11.4123L43.1101 10.2124L44.466 10.2281L44.5355 4.22849L43.1796 4.21279L43.1935 3.01287L47.2012 3.05928Z" fill="#98A2B3"/>
<path d="M38.0161 3.56515L39.9658 11.7357L38.7285 12.031L34.5962 7.89723L35.1942 7.76686L33.3359 13.3178L32.1687 13.5963L30.219 5.42571L31.4796 5.1249L32.279 8.47485C32.4461 9.17518 32.5809 9.8092 32.6835 10.3769C32.7783 10.9465 32.8488 11.5177 32.895 12.0906L32.6286 11.6977L34.3155 6.9279L35.0859 6.74407L38.652 10.211L38.6378 10.7202C38.4278 10.2193 38.2413 9.69631 38.0783 9.15125C37.9094 8.61583 37.7349 7.97071 37.5548 7.2159L36.7555 3.86596L38.0161 3.56515Z" fill="#98A2B3"/>
<path d="M24.9442 8.1983L29.2961 15.383L24.7698 18.1248L24.1232 17.0573L27.5411 14.987L24.4822 9.93719L21.0644 12.0075L20.4178 10.9401L24.9442 8.1983ZM26.3499 11.654L26.9965 12.7214L23.5375 14.8166L22.891 13.7491L26.3499 11.654Z" fill="#98A2B3"/>
<path d="M12.6102 18.4668L19.3668 23.4575L17.2422 26.3339C16.957 26.72 16.599 27.0027 16.1683 27.1818C15.7393 27.3721 15.2894 27.4426 14.8186 27.3933C14.3543 27.3487 13.9194 27.1766 13.514 26.8772C13.1472 26.6063 12.8775 26.2578 12.7048 25.8319C12.5321 25.4059 12.468 24.9608 12.5126 24.4964C12.5637 24.0369 12.7341 23.6108 13.0241 23.2183L14.3787 21.3843L11.8402 19.5092L12.6102 18.4668ZM9.64422 22.4821L13.9634 23.017L13.4134 24.2667L8.70058 23.7395L9.64422 22.4821ZM15.3826 22.1258L13.9566 24.0563C13.8188 24.2429 13.7403 24.4435 13.721 24.658C13.7082 24.8773 13.7514 25.0882 13.8504 25.2907C13.956 25.4979 14.1085 25.6752 14.3079 25.8226C14.5332 25.9889 14.7698 26.0792 15.0179 26.0934C15.2677 26.1188 15.5122 26.0706 15.7513 25.9488C15.9857 25.8335 16.1908 25.6568 16.3666 25.4187L17.593 23.7585L15.3826 22.1258Z" fill="#98A2B3"/>
<path d="M5.16125 31.8837C5.36088 31.3263 5.64734 30.8468 6.02064 30.4452C6.39124 30.0511 6.82069 29.7418 7.30899 29.5173C7.80212 29.303 8.32852 29.1857 8.88821 29.1652C9.45272 29.1549 10.0287 29.255 10.6162 29.4654C11.2036 29.6759 11.7084 29.9629 12.1305 30.3265C12.5574 30.7004 12.8896 31.1253 13.127 31.6012C13.3693 32.0874 13.5085 32.6003 13.5446 33.1401C13.578 33.6874 13.4949 34.2398 13.2952 34.7971C13.0956 35.3544 12.8105 35.8301 12.4399 36.2242C12.0666 36.6259 11.6334 36.9339 11.1402 37.1481C10.6444 37.3699 10.1142 37.4859 9.54973 37.4962C8.99004 37.5166 8.42024 37.423 7.84032 37.2153C7.2604 37.0076 6.75697 36.7168 6.33003 36.3429C5.90792 35.9793 5.57574 35.5544 5.33349 35.0683C5.08854 34.5896 4.94936 34.0767 4.91596 33.5293C4.87987 32.9895 4.96163 32.441 5.16125 31.8837ZM6.34746 32.3085C6.20988 32.6926 6.15599 33.0685 6.18579 33.4361C6.21289 33.8112 6.31266 34.1613 6.4851 34.4865C6.66508 34.8144 6.90536 35.1044 7.20595 35.3565C7.51137 35.6189 7.8712 35.8242 8.28543 35.9726C8.69966 36.121 9.10427 36.1894 9.49928 36.178C9.89912 36.1767 10.2689 36.1052 10.6086 35.9635C10.9558 35.8244 11.259 35.6186 11.5181 35.346C11.7745 35.0809 11.9714 34.7563 12.109 34.3722C12.2466 33.9881 12.3018 33.6085 12.2747 33.2334C12.2449 32.8658 12.1452 32.5157 11.9754 32.1829C11.803 31.8577 11.5627 31.5677 11.2546 31.3129C10.954 31.0608 10.5928 30.8592 10.1711 30.7081C9.75683 30.5598 9.34979 30.4862 8.94995 30.4874C8.55012 30.4887 8.18035 30.5602 7.84065 30.702C7.49826 30.8512 7.19887 31.0584 6.94247 31.3235C6.68337 31.5961 6.48504 31.9244 6.34746 32.3085Z" fill="#98A2B3"/>
<path d="M3.3665 40.2322L11.6209 43.8378L11.5649 45.1566L3.03549 48.0252L3.09405 46.6465L8.23497 44.9431C8.29194 44.9215 8.42985 44.8793 8.64871 44.8165C8.86723 44.7618 9.11024 44.696 9.37774 44.6193C9.64524 44.5426 9.88842 44.4728 10.1073 44.4101C10.3341 44.3476 10.48 44.3058 10.545 44.2845L10.5453 44.5608C10.4114 44.5071 10.2421 44.4398 10.0374 44.3591C9.83228 44.2863 9.61554 44.205 9.38714 44.1152C9.1584 44.0335 8.94166 43.9522 8.7369 43.8714C8.54014 43.791 8.37483 43.7239 8.24099 43.6702L3.31048 41.5511L3.3665 40.2322ZM5.39151 41.7596L6.61802 42.2921L6.45607 46.1047L5.18577 46.6032L5.39151 41.7596Z" fill="#98A2B3"/>
<path d="M3.91037 53.057L12.0659 51.0452L12.8534 54.2375C12.9971 54.8201 13.0293 55.3683 12.9501 55.8822C12.8728 56.4039 12.6928 56.8768 12.4101 57.3008C12.1275 57.7249 11.7596 58.0875 11.3066 58.3888C10.8536 58.6901 10.3241 58.9154 9.71828 59.0649C9.11244 59.2143 8.53506 59.262 7.98612 59.2079C7.44496 59.1519 6.95065 59.0019 6.50321 58.758C6.06544 58.5199 5.69103 58.1879 5.37998 57.762C5.06892 57.3361 4.84155 56.8319 4.69785 56.2493L3.91037 53.057ZM5.30429 54.048L5.42382 53.9815L5.89516 55.8922C5.9967 56.3038 6.15278 56.6526 6.36338 56.9385C6.57589 57.2321 6.82936 57.458 7.12379 57.6161C7.4279 57.78 7.77298 57.8762 8.15901 57.9046C8.54504 57.9329 8.95942 57.8925 9.40214 57.7833C9.84487 57.6741 10.2266 57.5181 10.5474 57.3154C10.876 57.1108 11.1367 56.8651 11.3297 56.5786C11.5227 56.292 11.6459 55.9732 11.6994 55.6222C11.7529 55.2712 11.7289 54.8898 11.6273 54.4782L11.1474 52.5325L11.2695 52.5765L5.30429 54.048Z" fill="#98A2B3"/>
<path d="M10.0301 68.199L18.6741 65.6659L19.4776 66.7131L14.7781 74.3874L13.938 73.2925L16.787 68.6867C16.8169 68.6336 16.8955 68.5127 17.0231 68.3241C17.1555 68.1418 17.2997 67.9354 17.4555 67.7049C17.6114 67.4744 17.7531 67.2648 17.8807 67.0762C18.0146 66.8827 18.0996 66.757 18.1358 66.699L18.3133 66.9107C18.1762 66.9554 18.0032 67.0125 17.7944 67.082C17.5904 67.1578 17.372 67.2346 17.1392 67.3123C16.9113 67.3964 16.693 67.4732 16.4841 67.5427C16.2816 67.6073 16.1118 67.662 15.9747 67.7067L10.8336 69.2462L10.0301 68.199ZM12.5632 68.0704L13.8456 67.6916L16.1684 70.7192L15.5143 71.9168L12.5632 68.0704Z" fill="#98A2B3"/>
<path d="M22.958 80.8277L27.9487 74.0711L28.9912 74.8411L24.0004 81.5977L22.958 80.8277ZM18.5468 77.5694L23.5376 70.8128L24.5801 71.5828L19.5893 78.3394L18.5468 77.5694ZM21.118 75.0378L21.8595 74.0339L26.2803 77.2993L25.5388 78.3032L21.118 75.0378Z" fill="#98A2B3"/>
<path d="M28.5263 83.645L31.5067 75.7916L36.4544 77.6693L36.0116 78.8361L32.2756 77.4182L30.1807 82.9381L33.9167 84.3559L33.4739 85.5227L28.5263 83.645ZM30.3831 80.4094L30.826 79.2426L34.6068 80.6774L34.164 81.8442L30.3831 80.4094Z" fill="#98A2B3"/>
<path d="M38.0817 86.5493L42.1271 78.5013L43.441 78.6284L45.8455 87.3001L44.4719 87.1673L43.0482 81.942C43.0297 81.8839 42.9951 81.7439 42.9442 81.522C42.9013 81.3008 42.8487 81.0546 42.7865 80.7834C42.7244 80.5122 42.6678 80.2656 42.617 80.0436C42.5668 79.8138 42.5329 79.6658 42.5152 79.5998L42.7911 79.6144C42.7302 79.7452 42.6539 79.9106 42.5622 80.1107C42.4785 80.3116 42.3857 80.5236 42.2837 80.7468C42.1897 80.9708 42.0969 81.1829 42.0052 81.383C41.9143 81.5751 41.8384 81.7366 41.7775 81.8673L39.3956 86.6764L38.0817 86.5493ZM39.716 84.6096L40.3139 83.4136L44.1122 83.7809L44.5415 85.0762L39.716 84.6096Z" fill="#98A2B3"/>
<path d="M50.7273 86.7405L49.185 78.4833L52.4171 77.8796C53.0069 77.7694 53.5561 77.7686 54.0647 77.8771C54.5811 77.9841 55.0429 78.1908 55.4501 78.4972C55.8573 78.8037 56.1983 79.1917 56.4732 79.6612C56.7481 80.1307 56.9428 80.6722 57.0573 81.2855C57.1719 81.8989 57.1865 82.4781 57.1011 83.023C57.0142 83.5601 56.8362 84.045 56.5671 84.4778C56.3044 84.9013 55.9515 85.2561 55.5086 85.5423C55.0656 85.8285 54.5492 86.0266 53.9594 86.1368L50.7273 86.7405ZM51.7963 85.4055L51.7367 85.2824L53.6713 84.921C54.0881 84.8432 54.4452 84.7073 54.7426 84.5134C55.048 84.318 55.2879 84.0779 55.4626 83.793C55.6437 83.4987 55.7594 83.1597 55.8098 82.7759C55.8602 82.3922 55.8435 81.9761 55.7598 81.5279C55.6761 81.0797 55.5422 80.6896 55.3581 80.3578C55.1726 80.018 54.9423 79.7437 54.6672 79.5346C54.3922 79.3256 54.081 79.1843 53.7336 79.1108C53.3862 79.0374 53.0041 79.0396 52.5873 79.1174L50.6173 79.4853L50.6683 79.366L51.7963 85.4055Z" fill="#98A2B3"/>
<path d="M67.0922 80.9365L62.4026 73.9675L65.3097 72.0113C65.7544 71.712 66.1741 71.526 66.5687 71.4533C66.9633 71.3806 67.3263 71.4257 67.6576 71.5884C67.9911 71.7401 68.2851 72.0051 68.5397 72.3834C68.7943 72.7617 68.9047 73.1551 68.871 73.5635C68.8439 73.9674 68.678 74.3442 68.3733 74.6939L68.2393 74.4948C68.5959 74.3512 68.9484 74.2876 69.2968 74.3038C69.6408 74.3134 69.9607 74.4019 70.2565 74.5693C70.559 74.7322 70.8196 74.9762 71.0385 75.3014C71.2618 75.6333 71.4075 75.9644 71.4754 76.2947C71.5456 76.6139 71.5359 76.929 71.4462 77.24C71.3633 77.5466 71.2103 77.8424 70.9875 78.1273C70.7601 78.4057 70.4639 78.6677 70.0989 78.9133L67.0922 80.9365ZM67.4707 79.1776L69.3424 77.9181C69.6145 77.735 69.8167 77.5411 69.949 77.3364C70.0878 77.1272 70.1557 76.9128 70.1525 76.6931C70.1515 76.4624 70.0773 76.2375 69.93 76.0185C69.7915 75.8127 69.6167 75.6748 69.4056 75.6047C69.2012 75.5301 68.9748 75.5234 68.7266 75.5843C68.4739 75.6387 68.2115 75.7574 67.9393 75.9405L66.1174 77.1665L67.4707 79.1776ZM65.4207 76.1311L67.1928 74.9386C67.3919 74.8046 67.541 74.6465 67.6401 74.4641C67.7458 74.2773 67.7949 74.0851 67.7874 73.8877C67.7865 73.6858 67.7258 73.4952 67.6052 73.316C67.4042 73.0173 67.1505 72.8553 66.8442 72.83C66.5379 72.8047 66.1989 72.9171 65.8272 73.1673L64.1746 74.2794L65.4207 76.1311Z" fill="#98A2B3"/>
<path d="M77.671 71.8168C77.2455 72.3055 76.7591 72.651 76.2117 72.8533C75.6583 73.0504 75.0974 73.0977 74.5289 72.9952C73.9597 72.8815 73.4368 72.6172 72.9601 72.2022L69.0503 68.7982L69.9013 67.8207L73.7296 71.1538C74.0374 71.4217 74.378 71.5909 74.7514 71.6615C75.1188 71.7268 75.4774 71.7048 75.8271 71.5956C76.182 71.4803 76.4829 71.2809 76.7298 70.9973C76.9924 70.6956 77.1564 70.3611 77.2217 69.9937C77.2923 69.6202 77.2699 69.256 77.1547 68.9011C77.0334 68.5409 76.8189 68.2269 76.5111 67.9589L72.6828 64.6259L73.4943 63.6937L77.4042 67.0977C77.8808 67.5126 78.2121 67.9972 78.3978 68.5514C78.5828 69.0943 78.6158 69.6534 78.4968 70.2287C78.3718 70.7987 78.0965 71.3281 77.671 71.8168Z" fill="#98A2B3"/>
<path d="M82.1559 65.0765L81.0805 64.5441L81.6821 63.3289L76.305 60.6668L75.7034 61.8821L74.6279 61.3496L76.4062 57.7577L77.4816 58.2901L76.88 59.5054L82.2571 62.1674L82.8587 60.9522L83.9342 61.4846L82.1559 65.0765Z" fill="#98A2B3"/>
<path d="M85.5634 56.7933L77.4156 54.7505L77.7308 53.4934L84.6681 55.2327L85.6253 51.4149L86.8358 51.7184L85.5634 56.7933Z" fill="#98A2B3"/>
<path d="M87.1969 45.6297L80.0457 45.5192L80.0094 47.871L78.7616 47.8517L78.8553 41.7804L80.1032 41.7997L80.0657 44.2234L87.2169 44.3338L87.1969 45.6297Z" fill="#98A2B3"/>

</svg>



