<svg width="32" height="32" viewBox="0 0 32 32" fill="none" xmlns="http://www.w3.org/2000/svg">
<path d="M16.9898 5.1719L19.8356 10.9374C19.9148 11.0979 20.0318 11.2366 20.1765 11.3418C20.3213 11.4469 20.4894 11.5153 20.6665 11.541L27.029 12.4657C27.2328 12.4953 27.4242 12.5813 27.5817 12.7141C27.7391 12.8468 27.8563 13.021 27.9199 13.2169C27.9835 13.4128 27.991 13.6225 27.9416 13.8225C27.8922 14.0224 27.7878 14.2045 27.6403 14.3482L23.0356 18.8359C22.7752 19.0897 22.6571 19.4549 22.7178 19.8125L23.8047 26.1496C23.8395 26.3525 23.8168 26.5611 23.7392 26.7518C23.6616 26.9425 23.5322 27.1077 23.3656 27.2287C23.199 27.3497 23.0019 27.4217 22.7966 27.4365C22.5912 27.4513 22.3858 27.4084 22.2036 27.3126L16.512 24.32C16.3535 24.2369 16.1773 24.1935 15.9984 24.1935C15.8194 24.1935 15.6431 24.2369 15.4847 24.32L9.79311 27.3126C9.61088 27.4084 9.40548 27.4513 9.20013 27.4365C8.99478 27.4217 8.79767 27.3497 8.6311 27.2287C8.46452 27.1077 8.33512 26.9425 8.25753 26.7518C8.17993 26.5611 8.15724 26.3525 8.19201 26.1496L9.2789 19.8125C9.30916 19.6361 9.29604 19.4551 9.24067 19.2849C9.1853 19.1148 9.08935 18.9607 8.96111 18.8359L4.35642 14.3482C4.20888 14.2045 4.10451 14.0224 4.05509 13.8225C4.00568 13.6225 4.0132 13.4128 4.07681 13.2169C4.14042 13.021 4.25757 12.8468 4.41502 12.7141C4.57247 12.5813 4.76392 12.4953 4.96773 12.4657L11.3302 11.541C11.5073 11.5153 11.6754 11.4469 11.8202 11.3418C11.9649 11.2366 12.0819 11.0979 12.1611 10.9374L15.0069 5.1719C15.4152 4.35204 16.5848 4.35204 16.9898 5.1719Z" fill="#FDB022"/>
</svg>
